<!DOCTYPE svg PUBLIC "-//W3C//DTD SVG 1.1//EN" "http://www.w3.org/Graphics/SVG/1.1/DTD/svg11.dtd">
<!-- Uploaded to: SVG Repo, www.svgrepo.com, Transformed by: SVG Repo Mixer Tools -->
<svg fill="#eee" height="800px" width="800px" version="1.1" id="Layer_1" xmlns="http://www.w3.org/2000/svg" xmlns:xlink="http://www.w3.org/1999/xlink" viewBox="0 0 512 512" xml:space="preserve" stroke="#eee">
<g id="SVGRepo_bgCarrier" stroke-width="0"/>
<g id="SVGRepo_tracerCarrier" stroke-linecap="round" stroke-linejoin="round"/>
<g id="SVGRepo_iconCarrier"> <g> <g> <path d="M393.561,465.665c-2.378-4.454-7.919-6.134-12.373-3.752c-2.375,1.27-4.81,2.506-7.24,3.673 c-10.069,4.833-20.363,9.104-30.597,12.69c-4.765,1.67-7.275,6.886-5.605,11.652c1.32,3.766,4.852,6.121,8.628,6.121 c1.002,0,2.024-0.167,3.023-0.517c10.867-3.808,21.789-8.337,32.464-13.462c2.667-1.281,5.342-2.638,7.949-4.031 C394.263,475.656,395.943,470.117,393.561,465.665z"/> </g> </g> <g> <g> <path d="M494.034,327.582c-4.824-1.486-9.941,1.229-11.425,6.055c-2.061,6.717-4.432,13.396-7.044,19.853 c-1.893,4.681,0.367,10.011,5.049,11.904c1.123,0.455,2.283,0.669,3.424,0.669c3.617,0,7.04-2.159,8.48-5.717 c2.807-6.942,5.355-14.123,7.573-21.339C501.571,334.18,498.86,329.066,494.034,327.582z"/> </g> </g> <g> <g> <path d="M474.296,378.47c-4.386-2.503-9.971-0.975-12.471,3.41c-8.817,15.451-19.285,29.607-31.115,42.073 c-3.477,3.662-3.324,9.449,0.338,12.926c1.769,1.677,4.034,2.511,6.293,2.511c2.42,0,4.836-0.956,6.633-2.849 c12.839-13.53,24.188-28.871,33.732-45.597C480.21,386.557,478.682,380.973,474.296,378.47z"/> </g> </g> <g> <g> <path d="M54.711,115.894c-4.214-2.776-9.885-1.61-12.665,2.608c-10.4,15.792-19.043,32.745-25.689,50.391 c-1.78,4.725,0.608,9.999,5.333,11.778c1.062,0.4,2.15,0.589,3.222,0.589c3.696,0,7.178-2.259,8.558-5.922 c6.17-16.378,14.193-32.117,23.848-46.779C60.095,124.342,58.928,118.672,54.711,115.894z"/> </g> </g> <g> <g> <path d="M206.966,16.961c-1.18-4.91-6.111-7.934-11.028-6.752c-7.319,1.76-14.647,3.872-21.777,6.276 c-4.785,1.614-7.356,6.801-5.742,11.585c1.287,3.817,4.846,6.224,8.663,6.224c0.969,0,1.955-0.155,2.922-0.482 c6.617-2.232,13.417-4.191,20.211-5.825C205.124,26.807,208.148,21.87,206.966,16.961z"/> </g> </g> <g> <g> <path d="M26.195,320.173c-5.248-19.814-7.909-40.355-7.909-61.05c0.001-3.991,0.101-8.014,0.296-11.955 c0.249-5.043-3.636-9.334-8.68-9.584c-5.094-0.267-9.334,3.635-9.584,8.68c-0.21,4.24-0.317,8.564-0.318,12.857 c0,22.277,2.867,44.393,8.519,65.734c1.086,4.096,4.785,6.805,8.832,6.805c0.775,0,1.563-0.1,2.347-0.307 C24.58,330.058,27.488,325.053,26.195,320.173z"/> </g> </g> <g> <g> <path d="M285.956,4.855c-9.872-1.151-19.944-1.735-29.94-1.735c-0.006,0-0.011,0-0.017,0c-8.866,0-17.805,0.458-26.57,1.363 c-5.024,0.518-8.675,5.01-8.155,10.033c0.518,5.024,5.02,8.677,10.033,8.157c8.144-0.84,16.452-1.267,24.694-1.267 c0.006,0,0.011,0,0.016,0c9.29,0,18.651,0.542,27.821,1.612c0.361,0.041,0.718,0.062,1.072,0.062c4.575,0,8.526-3.429,9.068-8.085 C294.562,9.98,290.971,5.441,285.956,4.855z"/> </g> </g> <g> <g> <path d="M17.493,194.567c-4.92-1.134-9.829,1.935-10.963,6.857c-1.688,7.326-3.068,14.825-4.1,22.287 c-0.694,5.002,2.8,9.617,7.802,10.309c0.425,0.059,0.847,0.088,1.265,0.088c4.493,0,8.41-3.315,9.044-7.891 c0.959-6.928,2.241-13.887,3.807-20.687C25.483,200.61,22.413,195.701,17.493,194.567z"/> </g> </g> <g> <g> <path d="M81.525,420.573c-11.928-12.884-22.437-27.096-31.232-42.238c-2.537-4.368-8.132-5.849-12.498-3.315 c-4.367,2.536-5.85,8.131-3.315,12.498c9.471,16.306,20.784,31.606,33.625,45.478c1.803,1.947,4.253,2.932,6.712,2.932 c2.221,0,4.45-0.806,6.209-2.434C84.732,430.063,84.955,424.279,81.525,420.573z"/> </g> </g> <g> <g> <path d="M121.227,454.967c-5.748-3.963-11.394-8.236-16.78-12.699c-3.889-3.223-9.652-2.681-12.874,1.208 c-3.222,3.888-2.681,9.651,1.207,12.873c5.8,4.804,11.878,9.404,18.068,13.672c1.585,1.092,3.391,1.616,5.181,1.616 c2.905,0,5.762-1.381,7.536-3.953C126.431,463.527,125.384,457.833,121.227,454.967z"/> </g> </g> <g> <g> <path d="M165.07,29.367c-2.033-4.623-7.43-6.721-12.05-4.688c-24.244,10.664-46.635,25.001-66.55,42.615 c-3.783,3.345-4.137,9.123-0.791,12.906c1.807,2.043,4.324,3.085,6.852,3.085c2.153,0,4.314-0.756,6.054-2.294 c18.497-16.358,39.289-29.673,61.797-39.574C165.004,39.384,167.103,33.989,165.07,29.367z"/> </g> </g> <g> <g> <path d="M451.633,93.995c-4.857-5.749-10.028-11.351-15.369-16.647c-3.583-3.554-9.372-3.532-12.929,0.054 c-3.556,3.585-3.532,9.373,0.054,12.929c4.961,4.921,9.766,10.124,14.279,15.466c1.807,2.141,4.387,3.241,6.986,3.241 c2.083,0,4.18-0.709,5.897-2.159C454.406,103.62,454.893,97.852,451.633,93.995z"/> </g> </g> <g> <g> <path d="M496.822,172.078c-6.412-17.736-14.831-34.805-25.022-50.737c-2.721-4.253-8.376-5.495-12.628-2.775 c-4.253,2.721-5.495,8.376-2.773,12.629c9.46,14.791,17.275,30.637,23.225,47.099c1.346,3.723,4.857,6.037,8.599,6.037 c1.033,0,2.082-0.177,3.109-0.547C496.08,182.068,498.538,176.826,496.822,172.078z"/> </g> </g> <g> <g> <path d="M419.489,62.115c-20.447-16.987-43.266-30.62-67.824-40.52c-4.685-1.885-10.011,0.378-11.899,5.061 c-1.888,4.684,0.379,10.01,5.061,11.898c22.799,9.192,43.987,21.85,62.975,37.626c1.708,1.419,3.779,2.11,5.838,2.11 c2.623,0,5.23-1.124,7.036-3.301C423.906,71.107,423.373,65.342,419.489,62.115z"/> </g> </g> <g> <g> <path d="M511.169,238.348c-0.402-5.033-4.804-8.787-9.845-8.381c-5.033,0.405-8.786,4.813-8.381,9.846 c0.512,6.376,0.772,12.873,0.772,19.309c0,18.219-1.941,36.417-5.768,54.089c-1.069,4.935,2.065,9.802,7,10.871 c0.652,0.141,1.303,0.208,1.944,0.208c4.211,0,8.001-2.927,8.927-7.209c4.102-18.943,6.183-38.444,6.183-57.961 C512,252.198,511.721,245.209,511.169,238.348z"/> </g> </g> <g> <g> <path d="M176.933,481.882c-20.503-6.411-33.974-13.556-37.612-15.594c-4.404-2.464-9.979-0.892-12.444,3.513 c-2.465,4.406-0.892,9.978,3.513,12.444c5.164,2.89,19.505,10.34,41.087,17.089c0.908,0.284,1.827,0.419,2.731,0.419 c3.892,0,7.501-2.505,8.724-6.417C184.437,488.519,181.751,483.39,176.933,481.882z"/> </g> </g> <g> <g> <path d="M370.345,248.136c-6.755-14.68-17.92-22.969-25.384-27.136l19.912-89.751c0.037-0.168,0.071-0.338,0.097-0.508 c1.545-9.467-0.695-18.968-6.306-26.751c-5.608-7.781-13.912-12.913-23.384-14.454c-19.546-3.178-38.051,10.124-41.238,29.657 c-0.206,1.265-0.356,2.714-0.428,4.131l-8.799,58.139c-5.795-4.045-13.164-6.357-21.164-6.585 c-0.333-0.01-0.666-0.015-0.997-0.015c-13.688,0-25.073,8.103-30.443,20.469c-7.123-4.148-16.01-5.582-25.634-3.683 c-8.405,1.662-15.214,6.149-19.691,12.978c-1.426,2.174-2.594,4.565-3.491,7.099c-0.787-0.505-1.596-0.968-2.421-1.388 c-7.179-3.647-15.629-3.975-24.442-0.944c-18.459,6.348-25.296,26.006-17.42,50.08c0.705,2.154,1.446,4.331,2.231,6.509 c0.029,4.28,0.148,21.523,0.182,29.42c-0.012,0.188-0.028,0.375-0.028,0.566c0,0.796,0.023,1.588,0.038,2.382 c0.002,0.106,0.002,0.212,0.005,0.318c0.897,41.513,22.385,79.273,56.559,99.023v102.045c0,5.049,4.092,9.143,9.143,9.143 s9.143-4.094,9.143-9.143V392.244c0-3.432-1.922-6.576-4.977-8.138c-1.61-0.824-2.922-1.532-4.128-2.228 c-28.643-16.538-46.669-48.375-47.459-83.504c0-0.005,0-0.01,0-0.013c5.956,5.742,13.229,9.371,22.267,9.371 c1.991,0,4.067-0.177,6.233-0.544c8.029-1.363,14.251-5.563,17.996-12.143c0.958-1.685,1.714-3.471,2.297-5.319 c0.581,0.329,1.176,0.64,1.79,0.933c7.001,3.327,14.777,3.419,23.122,0.269c0.162-0.061,0.312-0.134,0.472-0.199 c-1.25,0.953-2.464,1.942-3.597,3.003c-8.035,7.525-12.109,16.887-12.109,27.826c0,5.049,4.092,9.143,9.143,9.143 s9.143-4.094,9.143-9.143c0-5.834,2.007-10.433,6.312-14.471c5.391-5.055,13.619-8.475,22.661-10.75 c0.005-0.001,0.01-0.002,0.015-0.004c17.198-4.324,37.33-4.507,46.458-3.922c5.004,0.345,9.39-3.488,9.721-8.526 c0.33-5.038-3.488-9.39-8.527-9.721c-3.807-0.25-26.925-1.46-49.391,3.725c-7.22-3.907-10.467-10.273-11.253-16.02 c-0.213-1.564-0.254-3.082-0.135-4.49c0.096-1.145,0.277-2.25,0.539-3.316c1.835-7.473,7.646-12.889,16.082-14.775 c36.313-8.113,59.262-4.898,62.991-4.274c2.714,1.058,15.308,6.632,21.808,21.022c6.456,14.298,5.01,32.99-4.295,55.554 c-0.617,1.497-1.223,2.987-1.826,4.473c-8.233,20.267-15.343,37.768-48.396,62.152c-2.337,1.724-3.716,4.454-3.716,7.358v114.159 c0,5.049,4.092,9.143,9.143,9.143c5.051,0,9.143-4.094,9.143-9.143V390.14c34.085-26.125,42.561-46.991,50.767-67.192 c0.59-1.456,1.184-2.916,1.788-4.383C377.844,290.968,379.149,267.273,370.345,248.136z M190.412,286.014 c-0.71,1.243-1.877,2.589-5.155,3.146c-8.461,1.431-17.803-1.855-28.767-35.372c-1.23-3.758-6.721-22.732,5.989-27.102 c2.089-0.718,3.977-1.078,5.684-1.078c1.671,0,3.172,0.344,4.525,1.031c3.81,1.936,7.128,6.955,9.34,14.13 c0.037,0.118,0.077,0.235,0.117,0.352l5.828,16.484c0.185,0.535,0.386,1.141,0.608,1.803c0.233,0.699,0.483,1.447,0.751,2.233 C191.51,268.956,193.591,280.447,190.412,286.014z M234.155,261.5c-0.786,5.619-2.777,10.689-7.095,12.32 c-5.287,1.997-7.937,0.736-8.809,0.322c-5.68-2.7-9.394-12.009-11.503-18.094c-0.579-1.899-1.091-3.346-1.401-4.187 c-0.683-2.749-3.907-15.801-5.344-22.383c-0.869-3.984-0.822-10.257,2.174-14.825c1.771-2.703,4.37-4.359,7.946-5.065 c9.557-1.891,16.513,1.67,19.24,9.786l4.207,23.845c0.013,0.078,0.028,0.157,0.044,0.235c0.367,1.84,0.844,5.436,0.952,9.543 C234.64,255.727,234.548,258.681,234.155,261.5z M278.75,218.765c-4.352,0.734-8.908,1.613-13.685,2.68 c-5.81,1.298-11.014,3.701-15.445,6.939c-1.972-11.619-2.204-12.451-2.328-12.895c-0.039-0.144-0.079-0.285-0.122-0.428 l-0.322-1.819c0.191-0.697,0.314-1.426,0.335-2.182c0.262-9.116,5.816-18.209,15.946-17.905c5.163,0.148,9.612,1.69,12.527,4.342 c2.778,2.528,4.133,6.017,4.027,10.378C279.629,208.79,279.228,213.404,278.75,218.765z M327.328,216.053 c-6.521-0.541-16.424-0.85-29.288,0.244l13.729-90.719c0.051-0.344,0.083-0.69,0.096-1.039c0.029-0.824,0.113-1.721,0.226-2.401 c1.563-9.587,10.653-16.12,20.254-14.553c4.653,0.757,8.732,3.277,11.486,7.097c2.705,3.753,3.812,8.321,3.127,12.887 L327.328,216.053z"/> </g> </g> </g>
</svg>